<svg width="182" height="60" viewBox="0 0 182 60" fill="none" xmlns="http://www.w3.org/2000/svg">
<rect y="4.15417" width="5.53886" height="55.3886" rx="2.76943" fill="black"/>
<rect x="22.1554" y="4.15417" width="5.53886" height="55.3886" rx="2.76943" fill="black"/>
<rect x="44.3109" y="4.15417" width="5.53886" height="55.3886" rx="2.76943" fill="black"/>
<rect x="11.0778" width="5.53886" height="55.3886" rx="2.76943" fill="#FFB61D"/>
<rect x="33.2332" width="5.53886" height="55.3886" rx="2.76943" fill="#FFB61D"/>
<path d="M78.768 21.76V24.736H72.848V44H69.2V24.736H63.248V21.76H78.768ZM81.2465 35.104C81.2465 33.3333 81.6092 31.7653 82.3345 30.4C83.0812 29.0347 84.0838 27.9787 85.3425 27.232C86.6225 26.464 88.0305 26.08 89.5665 26.08C90.9532 26.08 92.1585 26.3573 93.1825 26.912C94.2278 27.4453 95.0598 28.1173 95.6785 28.928V26.368H99.3585V44H95.6785V41.376C95.0598 42.208 94.2172 42.9013 93.1505 43.456C92.0838 44.0107 90.8678 44.288 89.5025 44.288C87.9878 44.288 86.6012 43.904 85.3425 43.136C84.0838 42.3467 83.0812 41.2587 82.3345 39.872C81.6092 38.464 81.2465 36.8747 81.2465 35.104ZM95.6785 35.168C95.6785 33.952 95.4225 32.896 94.9105 32C94.4198 31.104 93.7692 30.4213 92.9585 29.952C92.1478 29.4827 91.2732 29.248 90.3345 29.248C89.3958 29.248 88.5212 29.4827 87.7105 29.952C86.8998 30.4 86.2385 31.072 85.7265 31.968C85.2358 32.8427 84.9905 33.888 84.9905 35.104C84.9905 36.32 85.2358 37.3867 85.7265 38.304C86.2385 39.2213 86.8998 39.9253 87.7105 40.416C88.5425 40.8853 89.4172 41.12 90.3345 41.12C91.2732 41.12 92.1478 40.8853 92.9585 40.416C93.7692 39.9467 94.4198 39.264 94.9105 38.368C95.4225 37.4507 95.6785 36.384 95.6785 35.168ZM110.55 44.288C109.163 44.288 107.915 44.0427 106.806 43.552C105.718 43.04 104.854 42.3573 104.214 41.504C103.574 40.6293 103.233 39.6587 103.19 38.592H106.966C107.03 39.3387 107.382 39.968 108.022 40.48C108.683 40.9707 109.505 41.216 110.486 41.216C111.51 41.216 112.299 41.024 112.854 40.64C113.43 40.2347 113.718 39.7227 113.718 39.104C113.718 38.4427 113.398 37.952 112.758 37.632C112.139 37.312 111.147 36.96 109.782 36.576C108.459 36.2133 107.382 35.8613 106.55 35.52C105.718 35.1787 104.993 34.656 104.374 33.952C103.777 33.248 103.478 32.32 103.478 31.168C103.478 30.2293 103.755 29.376 104.31 28.608C104.865 27.8187 105.654 27.2 106.678 26.752C107.723 26.304 108.918 26.08 110.262 26.08C112.267 26.08 113.878 26.592 115.094 27.616C116.331 28.6187 116.993 29.9947 117.078 31.744H113.43C113.366 30.9547 113.046 30.3253 112.47 29.856C111.894 29.3867 111.115 29.152 110.134 29.152C109.174 29.152 108.438 29.3333 107.926 29.696C107.414 30.0587 107.158 30.5387 107.158 31.136C107.158 31.6053 107.329 32 107.67 32.32C108.011 32.64 108.427 32.896 108.918 33.088C109.409 33.2587 110.134 33.4827 111.094 33.76C112.374 34.1013 113.419 34.4533 114.23 34.816C115.062 35.1573 115.777 35.6693 116.374 36.352C116.971 37.0347 117.281 37.9413 117.302 39.072C117.302 40.0747 117.025 40.9707 116.47 41.76C115.915 42.5493 115.126 43.168 114.102 43.616C113.099 44.064 111.915 44.288 110.55 44.288ZM128.22 35.2L136.348 44H131.42L124.892 36.416V44H121.244V20.32H124.892V34.08L131.292 26.368H136.348L128.22 35.2ZM142.611 20.32V44H138.963V20.32H142.611ZM163.272 26.368L152.456 52.288H148.68L152.264 43.712L145.32 26.368H149.384L154.344 39.808L159.496 26.368H163.272ZM170.601 21.76L170.185 37.28H167.145L166.729 21.76H170.601ZM168.777 44.224C168.116 44.224 167.561 44 167.113 43.552C166.665 43.104 166.441 42.5493 166.441 41.888C166.441 41.2267 166.665 40.672 167.113 40.224C167.561 39.776 168.116 39.552 168.777 39.552C169.417 39.552 169.961 39.776 170.409 40.224C170.857 40.672 171.081 41.2267 171.081 41.888C171.081 42.5493 170.857 43.104 170.409 43.552C169.961 44 169.417 44.224 168.777 44.224Z" fill="black"/>
</svg>
